{"title":"Fernando Trueba - Belle epoque (1992)","uid":5869046,"size":1465613916,"categoryP":"video","categoryS":"movies","magnet":"?xt=urn:btih:c6191b57768a27701983d7a4405d5ccc64bcce98&amp;dn=+Fernando+Trueba+-+Belle+epoque+%281992%29&amp;tr=udp%3A%2F%2Ftracker.openbittorrent.com%3A80&amp;tr=udp%3A%2F%2Fopen.demonii.com%3A1337&amp;tr=udp%3A%2F%2Ftracker.coppersurfer.tk%3A6969&amp;tr=udp%3A%2F%2Fexodus.desync.com%3A6969","seeders":6,"leechers":1,"uploader":"mfccorrea","files":4,"time":1286390422,"description":"After striking responsive chord at the Berlin Film Festival, Fernando Trueba's Belle Epoque (aka Age of Beauty) went on to win 9 Spanish Goya awards and an Academy Award for &quot;Best Foreign Film.&quot; Set in pre-Franco Spain, film stars Jorge Sanz  as Fernando, a carefree, pacifistic army deserter. Wandering about the countryside, Fernando is welcomed into home of the wealthy Don Manolo (Fernando Fernan Gomez). Far from upset by the boy's AWOL status, Manolo is delighted because he shares Fernando's political philosophies. What follows is sheer heaven for the peaceloving lad, who sits smilingly on the sidelines as Manolo's four voluptuous daughters (Adrian Gil, Maribel Verdu, Miriam Diaz-Aroca, and Penelope Cruz) literally fight for his attentions. \n\n   General\n      Complete name : Belle Epoque.avi\n      Format : AVI\n      Format/Info : Audio Video Interleave\n      File size : 1.36 GiB\n      Duration : 1h 49mn\n      Overall bit rate : 1 784 Kbps\n      Writing application : FairUse Wizard - http://fairusewizard.com\n      Writing library : The best and REALLY easy backup tool\n   Video #0\n      ID : 0\n      Format : MPEG-4 Visual\n      Format profile : AdvancedSimple@L5\n      Format settings, BVOP : Yes\n      Format settings, QPel : No\n      Format settings, GMC : No warppoints\n      Format settings, Matrix : Default (MPEG)\n      Muxing mode : Packed bitstream\n      Codec ID : XVID\n      Codec ID/Hint : XviD\n      Duration : 1h 49mn\n      Bit rate : 1 582 Kbps\n      Width : 672 pixels\n      Height : 288 pixels\n      Display aspect ratio : 2.35:1\n      Frame rate : 25.000 fps\n      Resolution : 24 bits\n      Colorimetry : 4:2:0\n      Scan type : Progressive\n      Bits/(Pixel*Frame) : 0.327\n      Stream size : 1.21 GiB (89%)\n      Writing library : XviD 1.2.0.dev47 (UTC 2006-11-01)\n   Audio #1\n      ID : 1\n      Format : AC-3\n      Format/Info : Audio Coding 3\n      Codec ID : 2000\n      Duration : 1h 49mn\n      Bit rate mode : Constant\n      Bit rate : 192 Kbps\n      Channel(s) : 2 channels\n      Channel positions : L R\n      Sampling rate : 48.0 KHz\n      Stream size : 150 MiB (11%)\n      Alignment : Split accross interleaves\n      Interleave, duration : 40 ms (1.00 video frame)\n      Interleave, preload duration : 500 ms\n &lt;a href=&quot;\nhttp://www.imdb.com/title/tt0103791/&quot; rel=&quot;nofollow&quot; target=&quot;_NEW&quot;&gt;\nhttp://www.imdb.com/title/tt0103791/&lt;/a&gt;\n\nFernando Trueba - Belle epoque (1992)\n\nSpanish audio; English and Portuguese subtitles","torrent":{"xt":"urn:btih:c6191b57768a27701983d7a4405d5ccc64bcce98","amp;dn":"+Fernando+Trueba+-+Belle+epoque+%281992%29","amp;tr":["udp%3A%2F%2Ftracker.openbittorrent.com%3A80","udp%3A%2F%2Fopen.demonii.com%3A1337","udp%3A%2F%2Ftracker.coppersurfer.tk%3A6969","udp%3A%2F%2Fexodus.desync.com%3A6969"],"infoHash":"c6191b57768a27701983d7a4405d5ccc64bcce98","infoHashBuffer":{"type":"Buffer","data":[198,25,27,87,118,138,39,112,25,131,215,164,64,93,92,204,100,188,206,152]},"announce":[],"urlList":[]}}